<svg width="773" height="535" viewBox="0 0 773 535" fill="none" xmlns="http://www.w3.org/2000/svg">
<g id="undraw_Social_life_re_x7t5 1" filter="url(#filter0_d)">
<rect width="765" height="527" transform="translate(4)" fill="url(#paint0_linear)"/>
<path id="Vector" d="M277.399 192.118C287.209 192.118 295.162 184.72 295.162 175.595C295.162 166.469 287.209 159.071 277.399 159.071C267.588 159.071 259.636 166.469 259.636 175.595C259.636 184.72 267.588 192.118 277.399 192.118Z" fill="white"/>
<g id="like1">
<path id="Vector_2" d="M277.399 159.071C273.886 159.071 270.451 160.04 267.53 161.856C264.609 163.671 262.332 166.252 260.988 169.271C259.643 172.29 259.292 175.613 259.977 178.818C260.662 182.023 262.354 184.968 264.838 187.279C267.323 189.589 270.488 191.163 273.933 191.801C277.379 192.438 280.951 192.111 284.196 190.861C287.442 189.61 290.216 187.492 292.168 184.775C294.12 182.057 295.162 178.863 295.162 175.595C295.162 171.212 293.29 167.009 289.959 163.91C286.628 160.812 282.11 159.071 277.399 159.071V159.071ZM273.146 182.809C273.146 182.933 273.093 183.051 272.999 183.138C272.905 183.226 272.778 183.275 272.645 183.275H268.642C268.51 183.275 268.382 183.226 268.289 183.138C268.195 183.051 268.142 182.933 268.142 182.809V173.965C268.142 173.842 268.195 173.724 268.289 173.636C268.382 173.549 268.51 173.5 268.642 173.5H272.645C272.778 173.5 272.905 173.549 272.999 173.636C273.093 173.724 273.146 173.842 273.146 173.965V182.809ZM286.656 175.827C286.656 176.198 286.497 176.553 286.216 176.815C285.934 177.077 285.553 177.224 285.155 177.224V177.247C285.437 177.301 285.691 177.444 285.873 177.651C286.056 177.859 286.155 178.119 286.155 178.387C286.155 178.656 286.056 178.916 285.873 179.123C285.691 179.331 285.437 179.474 285.155 179.528V180.016C285.42 180.016 285.674 180.115 285.862 180.289C286.05 180.464 286.155 180.7 286.155 180.947C286.155 181.194 286.05 181.431 285.862 181.606C285.674 181.78 285.42 181.878 285.155 181.878H275.147C275.014 181.878 274.887 181.829 274.793 181.742C274.699 181.655 274.647 181.536 274.647 181.413V173.965C274.647 171.638 278.65 168.38 278.65 168.38V167.245C278.649 166.9 278.785 166.567 279.031 166.309C279.277 166.051 279.617 165.886 279.985 165.845C280.353 165.804 280.725 165.891 281.029 166.088C281.334 166.285 281.55 166.579 281.636 166.915L281.652 166.984C281.846 168.624 281.416 170.275 280.436 171.651H283.517C283.563 171.647 283.607 171.638 283.653 171.638H285.155C284.756 172.379 284.691 173.236 284.972 174.022C285.254 174.808 285.859 175.457 286.656 175.827V175.827Z" fill="#5E90FF"/>
</g>
<path id="Vector_3" d="M303.451 102.89C317.186 102.89 328.32 92.5328 328.32 79.7567C328.32 66.9805 317.186 56.6234 303.451 56.6234C289.717 56.6234 278.583 66.9805 278.583 79.7567C278.583 92.5328 289.717 102.89 303.451 102.89Z" fill="white"/>
<g id="like2">
<path id="Vector_4" d="M303.451 56.6234C298.533 56.6234 293.725 57.9801 289.635 60.5221C285.546 63.064 282.358 66.6769 280.476 70.904C278.594 75.131 278.101 79.7823 279.061 84.2698C280.02 88.7572 282.389 92.8791 285.867 96.1144C289.345 99.3496 293.776 101.553 298.6 102.445C303.424 103.338 308.424 102.88 312.968 101.129C317.512 99.3781 321.396 96.4131 324.129 92.6088C326.861 88.8046 328.32 84.332 328.32 79.7567C328.32 73.6214 325.7 67.7373 321.036 63.399C316.372 59.0607 310.047 56.6234 303.451 56.6234ZM297.497 89.8571C297.497 90.0299 297.423 90.1957 297.292 90.3179C297.16 90.4401 296.982 90.5087 296.796 90.5087H291.192C291.007 90.5087 290.828 90.4401 290.697 90.3179C290.566 90.1957 290.492 90.0299 290.492 89.8571V77.4759C290.492 77.3031 290.566 77.1374 290.697 77.0152C290.828 76.893 291.007 76.8243 291.192 76.8243H296.796C296.982 76.8243 297.16 76.893 297.292 77.0152C297.423 77.1374 297.497 77.3031 297.497 77.4759V89.8571ZM316.411 80.0825C316.411 80.601 316.19 81.0982 315.795 81.4648C315.401 81.8314 314.867 82.0374 314.309 82.0374V82.0703C314.705 82.1454 315.06 82.3453 315.316 82.6361C315.571 82.927 315.71 83.291 315.71 83.6665C315.71 84.042 315.571 84.406 315.316 84.6969C315.06 84.9877 314.705 85.1876 314.309 85.2628V85.9472C314.681 85.9472 315.037 86.0846 315.3 86.329C315.563 86.5734 315.71 86.9049 315.71 87.2505C315.71 87.5962 315.563 87.9277 315.3 88.1721C315.037 88.4165 314.681 88.5538 314.309 88.5538H300.299C300.113 88.5538 299.935 88.4852 299.804 88.3629C299.672 88.2407 299.598 88.075 299.598 87.9022V77.4759C299.598 74.2177 305.203 69.6562 305.203 69.6562V68.0676C305.202 67.5845 305.392 67.1181 305.737 66.7567C306.081 66.3953 306.556 66.1642 307.072 66.1071C307.588 66.05 308.108 66.171 308.534 66.4471C308.96 66.7232 309.263 67.1352 309.384 67.6049C309.391 67.6366 309.399 67.6687 309.406 67.7013C310.106 70.9595 307.704 74.2357 307.704 74.2357H312.017C312.081 74.2302 312.142 74.2177 312.208 74.2177H314.309C314.867 74.2177 315.401 74.4237 315.796 74.7903C316.19 75.1569 316.411 75.6542 316.411 76.1726C316.411 76.6911 316.19 77.1884 315.796 77.555C315.401 77.9216 314.867 78.1276 314.309 78.1276C314.867 78.1276 315.401 78.3336 315.795 78.7002C316.19 79.0668 316.411 79.564 316.411 80.0825V80.0825Z" fill="#5E90FF"/>
</g>
<path id="Vector_5" d="M358.816 327.831C360.628 327.44 362.325 326.684 363.789 325.616C365.252 324.549 366.446 323.195 367.287 321.652C368.127 320.109 368.594 318.413 368.654 316.684C368.713 314.955 368.365 313.234 367.632 311.644L414.53 213.083L387.702 206.797L350.039 305.656C347.249 306.978 345.076 309.206 343.934 311.917C342.791 314.629 342.758 317.637 343.84 320.37C344.921 323.104 347.044 325.373 349.804 326.748C352.564 328.123 355.771 328.508 358.816 327.831V327.831Z" fill="#A0616A"/>
<path id="Vector_6" d="M401.076 243.929L374.984 232.568C374.241 232.245 373.583 231.776 373.052 231.195C372.522 230.613 372.133 229.932 371.911 229.198C371.689 228.464 371.64 227.694 371.767 226.941C371.893 226.188 372.193 225.469 372.646 224.833L388.503 202.556C390.304 199.034 393.532 196.32 397.48 195.009C401.428 193.697 405.774 193.895 409.566 195.558C413.358 197.222 416.286 200.216 417.709 203.884C419.132 207.553 418.934 211.596 417.158 215.129L408.959 240.645C408.724 241.375 408.322 242.05 407.782 242.623C407.241 243.196 406.574 243.654 405.826 243.966C405.078 244.278 404.266 244.436 403.447 244.429C402.627 244.423 401.818 244.252 401.076 243.929H401.076Z" fill="#6C63FF"/>
<path id="Vector_7" d="M310.358 231.254L339.124 250.199C339.493 250.448 339.937 250.582 340.392 250.582C340.847 250.582 341.291 250.448 341.66 250.199L349.433 244.769C349.691 244.594 349.904 244.366 350.055 244.103C350.206 243.84 350.291 243.55 350.304 243.252C350.318 242.954 350.259 242.658 350.132 242.384C350.005 242.111 349.814 241.868 349.572 241.672L327.437 223.31C327.146 223.074 326.793 222.913 326.413 222.845C326.034 222.777 325.642 222.803 325.277 222.921L310.873 227.716C310.503 227.843 310.178 228.061 309.931 228.348C309.684 228.634 309.526 228.977 309.473 229.341C309.42 229.704 309.474 230.074 309.63 230.411C309.786 230.748 310.038 231.04 310.358 231.254H310.358Z" fill="#3F3D56"/>
<path id="Vector_8" d="M312.973 229.792L338.897 246.866C339.027 246.957 339.185 247.007 339.348 247.008C339.511 247.009 339.67 246.962 339.802 246.873L346.793 241.99C346.873 241.937 346.941 241.87 346.992 241.793C347.044 241.716 347.079 241.63 347.095 241.54C347.111 241.45 347.108 241.358 347.085 241.269C347.063 241.181 347.022 241.097 346.964 241.023C346.932 240.983 346.896 240.946 346.855 240.913L326.89 224.351C326.786 224.268 326.66 224.212 326.525 224.189C326.39 224.165 326.251 224.176 326.122 224.219L313.147 228.537C313.017 228.584 312.904 228.662 312.818 228.764C312.732 228.866 312.677 228.988 312.659 229.116C312.641 229.245 312.661 229.375 312.716 229.494C312.771 229.613 312.86 229.716 312.973 229.792V229.792Z" fill="white"/>
<path id="Vector_9" d="M415.2 513.705L400.682 513.704L393.776 461.612L415.203 461.614L415.2 513.705Z" fill="#A0616A"/>
<path id="Vector_10" d="M418.903 526.797L372.091 526.795V526.244C372.091 524.018 372.562 521.814 373.477 519.758C374.393 517.702 375.735 515.833 377.427 514.259C379.119 512.685 381.128 511.437 383.339 510.585C385.549 509.733 387.919 509.295 390.311 509.295H390.313L418.904 509.296L418.903 526.797Z" fill="#2F2E41"/>
<path id="Vector_11" d="M463.753 513.705L449.235 513.704L442.328 461.612L463.756 461.614L463.753 513.705Z" fill="#A0616A"/>
<path id="Vector_12" d="M467.456 526.797L420.643 526.795V526.244C420.643 524.018 421.114 521.814 422.03 519.758C422.946 517.702 424.288 515.833 425.98 514.259C427.672 512.685 429.681 511.437 431.891 510.585C434.102 509.733 436.471 509.295 438.864 509.295H438.865L467.457 509.296L467.456 526.797Z" fill="#2F2E41"/>
<path id="Vector_13" d="M463.089 499.213C462.958 499.213 462.826 499.209 462.694 499.201L445.998 498.051C444.854 497.967 443.769 497.544 442.903 496.844C442.036 496.144 441.434 495.204 441.185 494.162L412.196 346.139C412.1 345.73 411.84 345.37 411.47 345.132C411.1 344.894 410.646 344.796 410.2 344.857C409.755 344.918 409.351 345.134 409.071 345.462C408.79 345.789 408.654 346.204 408.689 346.621L418.982 492.463C419.04 493.145 418.946 493.83 418.705 494.476C418.464 495.122 418.082 495.715 417.583 496.217C417.084 496.719 416.479 497.119 415.805 497.393C415.132 497.667 414.405 497.809 413.67 497.809H400.956C399.884 497.809 398.837 497.508 397.951 496.946C397.065 496.384 396.382 495.586 395.992 494.658C364.018 416.769 375.596 264.155 375.688 262.62L376.873 261.518L440.557 271.747L440.692 271.869C462.451 286.736 471.868 460.845 468.408 493.966C468.386 495.373 467.828 496.726 466.833 497.786C465.835 498.701 464.49 499.214 463.089 499.213V499.213Z" fill="#2F2E41"/>
<path id="Vector_14" d="M383.035 172.241C399.098 172.241 412.12 160.127 412.12 145.185C412.12 130.242 399.098 118.129 383.035 118.129C366.972 118.129 353.95 130.242 353.95 145.185C353.95 160.127 366.972 172.241 383.035 172.241Z" fill="#A0616A"/>
<path id="Vector_15" d="M449.741 296.882C449.445 296.882 449.15 296.855 448.86 296.8L374.162 287.883C371.487 287.382 369.579 284.727 369.724 281.706L376.872 244.994C367.399 233.978 376.351 205.529 382.139 198.336L379.901 192.701C379.324 191.237 379.289 189.636 379.801 188.152C380.241 186.755 381.251 185.573 382.614 184.859L412.93 169.876C415.617 168.547 418.77 169.907 419.961 172.903L425.905 187.87L425.814 187.913C440.049 195.011 452.662 202.032 443.188 239.486L455.066 291.213C455.026 292.844 454.319 294.399 453.09 295.563C452.202 296.392 451 296.866 449.741 296.882Z" fill="#6C63FF"/>
<path id="Vector_16" d="M344.346 236.24C344.823 236.658 345.264 237.11 345.665 237.592L404.254 233.826L410.54 221.911L431.11 228.385L422.186 250.484C421.465 252.269 420.141 253.788 418.413 254.814C416.685 255.84 414.645 256.316 412.601 256.172L345.977 251.472C344.502 253.378 342.439 254.821 340.061 255.609C337.683 256.397 335.103 256.492 332.665 255.883C330.227 255.274 328.047 253.989 326.413 252.199C324.779 250.409 323.77 248.199 323.52 245.862C323.27 243.525 323.79 241.173 325.012 239.118C326.234 237.064 328.099 235.404 330.36 234.359C332.621 233.315 335.17 232.935 337.668 233.271C340.167 233.607 342.496 234.643 344.346 236.24V236.24Z" fill="#A0616A"/>
<path id="Vector_17" d="M403.197 231.199C402.905 230.541 402.769 229.831 402.799 229.119C402.829 228.407 403.024 227.71 403.37 227.075L415.451 204.878C416.689 201.42 419.349 198.559 422.85 196.924C426.351 195.288 430.406 195.01 434.127 196.151C437.848 197.292 440.931 199.759 442.699 203.011C444.468 206.262 444.778 210.034 443.562 213.498L438.909 238.081C438.776 238.782 438.482 239.449 438.047 240.035C437.613 240.622 437.047 241.114 436.389 241.479C435.731 241.844 434.997 242.072 434.236 242.149C433.474 242.226 432.704 242.149 431.977 241.924L406.441 234.016C405.714 233.791 405.048 233.423 404.488 232.937C403.928 232.451 403.488 231.858 403.197 231.199Z" fill="#6C63FF"/>
<g id="heart1">
<path id="Vector_18" d="M311.759 213.075C311.519 213.284 311.202 213.399 310.874 213.399C310.545 213.399 310.229 213.284 309.988 213.075L309.309 212.503C303.745 207.755 300.533 204.67 300.533 200.824C300.533 197.687 302.667 195.262 306.014 195.262C306.941 195.267 307.856 195.459 308.696 195.826C309.535 196.192 310.279 196.724 310.876 197.385C311.472 196.724 312.215 196.192 313.054 195.826C313.892 195.46 314.807 195.267 315.734 195.262C319.085 195.262 321.215 197.679 321.215 200.824C321.215 204.662 318.002 207.747 312.439 212.503L311.759 213.075Z" fill="#FF6584"/>
</g>
<g id="heart2">
<path id="Vector_19" d="M271.123 147.28C270.662 147.679 270.056 147.901 269.426 147.901C268.797 147.901 268.191 147.679 267.73 147.28L266.427 146.184C255.767 137.086 249.612 131.175 249.612 123.805C249.612 117.793 253.702 113.148 260.114 113.148C261.891 113.157 263.645 113.526 265.253 114.228C266.862 114.93 268.287 115.949 269.43 117.215C270.572 115.95 271.996 114.931 273.603 114.228C275.21 113.526 276.963 113.157 278.738 113.148C285.159 113.148 289.241 117.778 289.241 123.805C289.241 131.159 283.085 137.071 272.425 146.184L271.123 147.28Z" fill="#FF6584"/>
</g>
<g id="heart3">
<path id="Vector_20" d="M272.814 44.3318C272.216 44.8504 271.428 45.1387 270.611 45.1387C269.793 45.1387 269.005 44.8504 268.407 44.3318L266.715 42.9086C252.87 31.0914 244.875 23.4138 244.875 13.8418C244.875 6.0339 250.187 3.05176e-05 258.516 3.05176e-05C260.824 0.0122725 263.101 0.491 265.19 1.40305C267.28 2.3151 269.131 3.63868 270.616 5.28214C272.099 3.63893 273.948 2.31539 276.036 1.4033C278.123 0.491209 280.399 0.0123749 282.705 3.05176e-05C291.045 3.05176e-05 296.346 6.01386 296.346 13.8418C296.346 23.3938 288.351 31.0714 274.506 42.9086L272.814 44.3318Z" fill="#FF6584"/>
</g>
<path id="Vector_21" d="M767.816 527H5.18421C4.87014 527 4.56895 526.884 4.34686 526.677C4.12478 526.471 4 526.191 4 525.898C4 525.606 4.12478 525.326 4.34686 525.119C4.56895 524.913 4.87014 524.797 5.18421 524.797H767.816C768.13 524.797 768.431 524.913 768.653 525.119C768.875 525.326 769 525.606 769 525.898C769 526.191 768.875 526.471 768.653 526.677C768.431 526.884 768.13 527 767.816 527Z" fill="#CCCCCC"/>
<path id="Vector_22" d="M399.372 123.82C412.453 123.82 423.057 113.956 423.057 101.788C423.057 89.6206 412.453 79.7567 399.372 79.7567C386.292 79.7567 375.688 89.6206 375.688 101.788C375.688 113.956 386.292 123.82 399.372 123.82Z" fill="#2F2E41"/>
<path id="Vector_23" d="M355.501 148.529C353.188 148.757 350.727 148.961 348.645 147.995C347.532 147.407 346.583 146.584 345.875 145.591C345.168 144.598 344.723 143.465 344.575 142.282C340.162 115.007 365.093 117.251 368.043 116.07C370.025 115.276 371.485 113.677 373.257 112.53C377.132 110.021 382.159 109.838 386.879 109.743C392.482 109.631 398.288 109.554 403.431 111.626C408.055 113.641 411.898 116.936 414.433 121.059C416.942 125.165 418.781 129.596 419.888 134.205C421.314 139.478 422.284 145.056 420.816 150.319C419.605 154.32 417.079 157.868 413.593 160.467C410.106 163.066 405.834 164.586 401.373 164.814C403.286 158.528 399.11 151.559 392.913 148.483C387.914 146.196 382.225 145.566 376.789 146.697C373.262 147.362 369.686 147.776 366.093 147.936C362.566 148.059 358.332 148.251 355.501 148.529Z" fill="#2F2E41"/>
<g id="Tree">
<path id="Vector_24" d="M735.382 233.267C735.382 180.101 689.018 53.9394 631.825 53.9394C574.632 53.9394 528.268 180.101 528.268 233.267C528.289 258.804 539.208 283.287 558.627 301.337C578.045 319.387 604.374 329.526 631.825 329.526C659.277 329.526 685.605 319.387 705.024 301.337C724.442 283.287 735.362 258.804 735.382 233.267V233.267Z" fill="#20F01C"/>
</g>
<path id="Vector_25" d="M631.825 525.898C631.511 525.898 631.21 525.782 630.988 525.576C630.766 525.369 630.641 525.089 630.641 524.797V220.605C630.641 220.312 630.766 220.032 630.988 219.826C631.21 219.619 631.511 219.503 631.825 219.503C632.139 219.503 632.441 219.619 632.663 219.826C632.885 220.032 633.009 220.312 633.009 220.605V524.797C633.009 525.089 632.885 525.369 632.663 525.576C632.44 525.782 632.139 525.898 631.825 525.898V525.898Z" fill="#A0616A"/>
<path id="Vector_26" d="M631.826 262.62C631.656 262.62 631.488 262.586 631.334 262.521C631.179 262.455 631.042 262.359 630.93 262.24L571.372 198.348C571.167 198.127 571.065 197.84 571.088 197.549C571.111 197.258 571.256 196.987 571.493 196.796C571.73 196.605 572.039 196.509 572.352 196.529C572.664 196.55 572.956 196.685 573.162 196.904L632.72 260.796C632.869 260.956 632.965 261.152 632.997 261.361C633.03 261.57 632.997 261.783 632.902 261.975C632.808 262.167 632.657 262.33 632.466 262.444C632.275 262.559 632.053 262.62 631.826 262.62Z" fill="#A0616A"/>
<path id="Vector_27" d="M631.825 299.493C631.591 299.493 631.362 299.428 631.167 299.307C630.973 299.186 630.821 299.014 630.731 298.813C630.642 298.611 630.618 298.39 630.664 298.176C630.71 297.963 630.822 297.766 630.988 297.612L664.83 266.131C664.94 266.029 665.07 265.948 665.214 265.892C665.358 265.837 665.512 265.808 665.667 265.808C665.823 265.808 665.977 265.837 666.12 265.892C666.264 265.948 666.395 266.029 666.504 266.131C666.614 266.233 666.702 266.355 666.761 266.488C666.821 266.622 666.851 266.765 666.851 266.91C666.851 267.055 666.821 267.198 666.761 267.331C666.702 267.465 666.614 267.586 666.504 267.689L632.663 299.17C632.553 299.272 632.422 299.354 632.279 299.409C632.135 299.465 631.981 299.493 631.825 299.493Z" fill="#A0616A"/>
<path id="Vector_28" d="M631.825 420.667C631.591 420.667 631.362 420.602 631.167 420.481C630.973 420.36 630.821 420.188 630.731 419.987C630.642 419.786 630.618 419.564 630.664 419.351C630.71 419.137 630.822 418.941 630.988 418.787L664.83 387.305C665.052 387.099 665.353 386.983 665.667 386.983C665.981 386.983 666.282 387.099 666.504 387.305C666.727 387.512 666.851 387.792 666.851 388.084C666.851 388.376 666.727 388.656 666.504 388.863L632.663 420.344C632.553 420.447 632.422 420.528 632.279 420.583C632.135 420.639 631.981 420.667 631.825 420.667V420.667Z" fill="#A0616A"/>
</g>
<defs>
<filter id="filter0_d" x="0" y="0" width="773" height="535" filterUnits="userSpaceOnUse" color-interpolation-filters="sRGB">
<feFlood flood-opacity="0" result="BackgroundImageFix"/>
<feColorMatrix in="SourceAlpha" type="matrix" values="0 0 0 0 0 0 0 0 0 0 0 0 0 0 0 0 0 0 127 0"/>
<feOffset dy="4"/>
<feGaussianBlur stdDeviation="2"/>
<feColorMatrix type="matrix" values="0 0 0 0 0 0 0 0 0 0 0 0 0 0 0 0 0 0 0.25 0"/>
<feBlend mode="normal" in2="BackgroundImageFix" result="effect1_dropShadow"/>
<feBlend mode="normal" in="SourceGraphic" in2="effect1_dropShadow" result="shape"/>
</filter>
<linearGradient id="paint0_linear" x1="674" y1="8.99998" x2="-1.30467e-05" y2="532" gradientUnits="userSpaceOnUse">
<stop offset="0.221585" stop-color="#4BBAF8"/>
<stop offset="0.55811" stop-color="#6C63FF"/>
<stop offset="1" stop-color="#6C63FF"/>
</linearGradient>
</defs>
</svg>
